# xmcd
#
# Track frame offsets: 
#        150
#        20349
#        42469
#        57959
#        79606
#        100687
#        125210
#        139999
#        163989
#        182730
#        200884
#        224540
#        252094
#
# Disc length: 3578 seconds
#
# Revision: 0
# Processed by: cddbd v1.5.2PL0 Copyright (c) Steve Scherf et al.
# Submitted via: ExactAudioCopyFreeDBPlugin 1.0
#
DISCID=c50df80d
DTITLE=The BB King Blues Band - The Soul Of The King
DYEAR=2019
DGENRE=Blues
TTITLE0=Irene Irene
TTITLE1=Sweet Little Angel
TTITLE2=There Must Be A Better World Somewhere
TTITLE3=Paying The Cost To Be The Boss
TTITLE4=Low Down
TTITLE5=She's The One
TTITLE6=Taking Care Of Business
TTITLE7=Becoming The Blues
TTITLE8=Hey There Pretty Woman
TTITLE9=Here Today, Gone Tomorrow
TTITLE10=Regal Blues (A Tribute To The King)
TTITLE11=Pocket Full Of Money
TTITLE12=The Thrill Is Gone
EXTD=
EXTT0=
EXTT1=
EXTT2=
EXTT3=
EXTT4=
EXTT5=
EXTT6=
EXTT7=
EXTT8=
EXTT9=
EXTT10=
EXTT11=
EXTT12=
PLAYORDER=
